%TF.GenerationSoftware,KiCad,Pcbnew,(6.0.5)*%
%TF.CreationDate,2022-11-15T14:41:10-03:00*%
%TF.ProjectId,obsonet_1,6f62736f-6e65-4745-9f31-2e6b69636164,rev?*%
%TF.SameCoordinates,Original*%
%TF.FileFunction,Legend,Bot*%
%TF.FilePolarity,Positive*%
%FSLAX46Y46*%
G04 Gerber Fmt 4.6, Leading zero omitted, Abs format (unit mm)*
G04 Created by KiCad (PCBNEW (6.0.5)) date 2022-11-15 14:41:10*
%MOMM*%
%LPD*%
G01*
G04 APERTURE LIST*
%ADD10C,0.081280*%
%ADD11C,0.096520*%
%ADD12C,0.101600*%
%ADD13C,0.127000*%
%ADD14C,0.150000*%
%ADD15C,0.177800*%
%ADD16C,0.304800*%
%ADD17C,0.812800*%
%ADD18C,0.152400*%
%ADD19C,0.120000*%
%ADD20C,0.050800*%
G04 APERTURE END LIST*
D10*
%TO.C,C1*%
X115815717Y-108283014D02*
X115861679Y-108328976D01*
X115999565Y-108374938D01*
X116091489Y-108374938D01*
X116229374Y-108328976D01*
X116321298Y-108237052D01*
X116367260Y-108145128D01*
X116413222Y-107961280D01*
X116413222Y-107823395D01*
X116367260Y-107639547D01*
X116321298Y-107547623D01*
X116229374Y-107455700D01*
X116091489Y-107409738D01*
X115999565Y-107409738D01*
X115861679Y-107455700D01*
X115815717Y-107501661D01*
X114896479Y-108374938D02*
X115448022Y-108374938D01*
X115172251Y-108374938D02*
X115172251Y-107409738D01*
X115264174Y-107547623D01*
X115356098Y-107639547D01*
X115448022Y-107685509D01*
%TO.C,C4*%
X160150017Y-105037514D02*
X160195979Y-105083476D01*
X160333865Y-105129438D01*
X160425789Y-105129438D01*
X160563674Y-105083476D01*
X160655598Y-104991552D01*
X160701560Y-104899628D01*
X160747522Y-104715780D01*
X160747522Y-104577895D01*
X160701560Y-104394047D01*
X160655598Y-104302123D01*
X160563674Y-104210200D01*
X160425789Y-104164238D01*
X160333865Y-104164238D01*
X160195979Y-104210200D01*
X160150017Y-104256161D01*
X159322703Y-104485971D02*
X159322703Y-105129438D01*
X159552512Y-104118276D02*
X159782322Y-104807704D01*
X159184817Y-104807704D01*
D11*
%TO.C,R2*%
X116503595Y-75126547D02*
X116905761Y-74552023D01*
X117193023Y-75126547D02*
X117193023Y-73920047D01*
X116733404Y-73920047D01*
X116618499Y-73977500D01*
X116561047Y-74034952D01*
X116503595Y-74149857D01*
X116503595Y-74322214D01*
X116561047Y-74437119D01*
X116618499Y-74494571D01*
X116733404Y-74552023D01*
X117193023Y-74552023D01*
X116043976Y-74034952D02*
X115986523Y-73977500D01*
X115871618Y-73920047D01*
X115584357Y-73920047D01*
X115469452Y-73977500D01*
X115411999Y-74034952D01*
X115354547Y-74149857D01*
X115354547Y-74264761D01*
X115411999Y-74437119D01*
X116101428Y-75126547D01*
X115354547Y-75126547D01*
%TO.C,R3*%
X103803595Y-75380547D02*
X104205761Y-74806023D01*
X104493023Y-75380547D02*
X104493023Y-74174047D01*
X104033404Y-74174047D01*
X103918499Y-74231500D01*
X103861047Y-74288952D01*
X103803595Y-74403857D01*
X103803595Y-74576214D01*
X103861047Y-74691119D01*
X103918499Y-74748571D01*
X104033404Y-74806023D01*
X104493023Y-74806023D01*
X103401428Y-74174047D02*
X102654547Y-74174047D01*
X103056714Y-74633666D01*
X102884357Y-74633666D01*
X102769452Y-74691119D01*
X102711999Y-74748571D01*
X102654547Y-74863476D01*
X102654547Y-75150738D01*
X102711999Y-75265642D01*
X102769452Y-75323095D01*
X102884357Y-75380547D01*
X103229071Y-75380547D01*
X103343976Y-75323095D01*
X103401428Y-75265642D01*
D12*
%TO.C,R4*%
X133800547Y-80089102D02*
X133226023Y-79686936D01*
X133800547Y-79399674D02*
X132594047Y-79399674D01*
X132594047Y-79859293D01*
X132651500Y-79974198D01*
X132708952Y-80031650D01*
X132823857Y-80089102D01*
X132996214Y-80089102D01*
X133111119Y-80031650D01*
X133168571Y-79974198D01*
X133226023Y-79859293D01*
X133226023Y-79399674D01*
X132996214Y-81123245D02*
X133800547Y-81123245D01*
X132536595Y-80835983D02*
X133398380Y-80548721D01*
X133398380Y-81295602D01*
%TO.C,R5*%
X129990547Y-80124402D02*
X129416023Y-79722236D01*
X129990547Y-79434974D02*
X128784047Y-79434974D01*
X128784047Y-79894593D01*
X128841500Y-80009498D01*
X128898952Y-80066950D01*
X129013857Y-80124402D01*
X129186214Y-80124402D01*
X129301119Y-80066950D01*
X129358571Y-80009498D01*
X129416023Y-79894593D01*
X129416023Y-79434974D01*
X128784047Y-81215998D02*
X128784047Y-80641474D01*
X129358571Y-80584021D01*
X129301119Y-80641474D01*
X129243666Y-80756379D01*
X129243666Y-81043640D01*
X129301119Y-81158545D01*
X129358571Y-81215998D01*
X129473476Y-81273450D01*
X129760738Y-81273450D01*
X129875642Y-81215998D01*
X129933095Y-81158545D01*
X129990547Y-81043640D01*
X129990547Y-80756379D01*
X129933095Y-80641474D01*
X129875642Y-80584021D01*
%TO.C,R6*%
X144722547Y-108029102D02*
X144148023Y-107626936D01*
X144722547Y-107339674D02*
X143516047Y-107339674D01*
X143516047Y-107799293D01*
X143573500Y-107914198D01*
X143630952Y-107971650D01*
X143745857Y-108029102D01*
X143918214Y-108029102D01*
X144033119Y-107971650D01*
X144090571Y-107914198D01*
X144148023Y-107799293D01*
X144148023Y-107339674D01*
X143516047Y-109063245D02*
X143516047Y-108833436D01*
X143573500Y-108718531D01*
X143630952Y-108661079D01*
X143803309Y-108546174D01*
X144033119Y-108488721D01*
X144492738Y-108488721D01*
X144607642Y-108546174D01*
X144665095Y-108603626D01*
X144722547Y-108718531D01*
X144722547Y-108948340D01*
X144665095Y-109063245D01*
X144607642Y-109120698D01*
X144492738Y-109178150D01*
X144205476Y-109178150D01*
X144090571Y-109120698D01*
X144033119Y-109063245D01*
X143975666Y-108948340D01*
X143975666Y-108718531D01*
X144033119Y-108603626D01*
X144090571Y-108546174D01*
X144205476Y-108488721D01*
%TO.C,R7*%
X154882547Y-81359102D02*
X154308023Y-80956936D01*
X154882547Y-80669674D02*
X153676047Y-80669674D01*
X153676047Y-81129293D01*
X153733500Y-81244198D01*
X153790952Y-81301650D01*
X153905857Y-81359102D01*
X154078214Y-81359102D01*
X154193119Y-81301650D01*
X154250571Y-81244198D01*
X154308023Y-81129293D01*
X154308023Y-80669674D01*
X153676047Y-81761269D02*
X153676047Y-82565602D01*
X154882547Y-82048531D01*
D11*
%TO.C,IC2*%
X157168547Y-99656452D02*
X155962047Y-99656452D01*
X157053642Y-100920404D02*
X157111095Y-100862952D01*
X157168547Y-100690595D01*
X157168547Y-100575690D01*
X157111095Y-100403333D01*
X156996190Y-100288428D01*
X156881285Y-100230976D01*
X156651476Y-100173523D01*
X156479119Y-100173523D01*
X156249309Y-100230976D01*
X156134404Y-100288428D01*
X156019500Y-100403333D01*
X155962047Y-100575690D01*
X155962047Y-100690595D01*
X156019500Y-100862952D01*
X156076952Y-100920404D01*
X156076952Y-101380023D02*
X156019500Y-101437476D01*
X155962047Y-101552381D01*
X155962047Y-101839642D01*
X156019500Y-101954547D01*
X156076952Y-102012000D01*
X156191857Y-102069452D01*
X156306761Y-102069452D01*
X156479119Y-102012000D01*
X157168547Y-101322571D01*
X157168547Y-102069452D01*
D13*
%TO.C,Q1*%
X116465954Y-79051452D02*
X116580859Y-78994000D01*
X116695764Y-78879095D01*
X116868121Y-78706738D01*
X116983026Y-78649285D01*
X117097930Y-78649285D01*
X117040478Y-78936547D02*
X117155383Y-78879095D01*
X117270288Y-78764190D01*
X117327740Y-78534380D01*
X117327740Y-78132214D01*
X117270288Y-77902404D01*
X117155383Y-77787500D01*
X117040478Y-77730047D01*
X116810669Y-77730047D01*
X116695764Y-77787500D01*
X116580859Y-77902404D01*
X116523407Y-78132214D01*
X116523407Y-78534380D01*
X116580859Y-78764190D01*
X116695764Y-78879095D01*
X116810669Y-78936547D01*
X117040478Y-78936547D01*
X115374359Y-78936547D02*
X116063788Y-78936547D01*
X115719073Y-78936547D02*
X115719073Y-77730047D01*
X115833978Y-77902404D01*
X115948883Y-78017309D01*
X116063788Y-78074761D01*
D14*
%TO.C,IC3*%
X141407380Y-116423809D02*
X140407380Y-116423809D01*
X141312142Y-117471428D02*
X141359761Y-117423809D01*
X141407380Y-117280952D01*
X141407380Y-117185714D01*
X141359761Y-117042857D01*
X141264523Y-116947619D01*
X141169285Y-116900000D01*
X140978809Y-116852380D01*
X140835952Y-116852380D01*
X140645476Y-116900000D01*
X140550238Y-116947619D01*
X140455000Y-117042857D01*
X140407380Y-117185714D01*
X140407380Y-117280952D01*
X140455000Y-117423809D01*
X140502619Y-117471428D01*
X140407380Y-117804761D02*
X140407380Y-118423809D01*
X140788333Y-118090476D01*
X140788333Y-118233333D01*
X140835952Y-118328571D01*
X140883571Y-118376190D01*
X140978809Y-118423809D01*
X141216904Y-118423809D01*
X141312142Y-118376190D01*
X141359761Y-118328571D01*
X141407380Y-118233333D01*
X141407380Y-117947619D01*
X141359761Y-117852380D01*
X141312142Y-117804761D01*
D12*
X145767547Y-105685278D02*
X145767547Y-104995849D01*
X145767547Y-105340563D02*
X144561047Y-105340563D01*
X144733404Y-105225659D01*
X144848309Y-105110754D01*
X144905761Y-104995849D01*
D11*
%TO.C,SW1*%
X147549047Y-76152195D02*
X147376690Y-76209647D01*
X147089428Y-76209647D01*
X146974523Y-76152195D01*
X146917071Y-76094742D01*
X146859618Y-75979838D01*
X146859618Y-75864933D01*
X146917071Y-75750028D01*
X146974523Y-75692576D01*
X147089428Y-75635123D01*
X147319238Y-75577671D01*
X147434142Y-75520219D01*
X147491595Y-75462766D01*
X147549047Y-75347861D01*
X147549047Y-75232957D01*
X147491595Y-75118052D01*
X147434142Y-75060600D01*
X147319238Y-75003147D01*
X147031976Y-75003147D01*
X146859618Y-75060600D01*
X146457452Y-75003147D02*
X146170190Y-76209647D01*
X145940380Y-75347861D01*
X145710571Y-76209647D01*
X145423309Y-75003147D01*
X144963690Y-76209647D02*
X144963690Y-75003147D01*
X144561523Y-75003147D02*
X143872095Y-75003147D01*
X144216809Y-76209647D02*
X144216809Y-75003147D01*
X142780499Y-76094742D02*
X142837952Y-76152195D01*
X143010309Y-76209647D01*
X143125214Y-76209647D01*
X143297571Y-76152195D01*
X143412476Y-76037290D01*
X143469928Y-75922385D01*
X143527380Y-75692576D01*
X143527380Y-75520219D01*
X143469928Y-75290409D01*
X143412476Y-75175504D01*
X143297571Y-75060600D01*
X143125214Y-75003147D01*
X143010309Y-75003147D01*
X142837952Y-75060600D01*
X142780499Y-75118052D01*
X142263428Y-76209647D02*
X142263428Y-75003147D01*
X142263428Y-75577671D02*
X141573999Y-75577671D01*
X141573999Y-76209647D02*
X141573999Y-75003147D01*
%TO.C,IC5*%
X146500547Y-92290452D02*
X145294047Y-92290452D01*
X146385642Y-93554404D02*
X146443095Y-93496952D01*
X146500547Y-93324595D01*
X146500547Y-93209690D01*
X146443095Y-93037333D01*
X146328190Y-92922428D01*
X146213285Y-92864976D01*
X145983476Y-92807523D01*
X145811119Y-92807523D01*
X145581309Y-92864976D01*
X145466404Y-92922428D01*
X145351500Y-93037333D01*
X145294047Y-93209690D01*
X145294047Y-93324595D01*
X145351500Y-93496952D01*
X145408952Y-93554404D01*
X145294047Y-94646000D02*
X145294047Y-94071476D01*
X145868571Y-94014023D01*
X145811119Y-94071476D01*
X145753666Y-94186381D01*
X145753666Y-94473642D01*
X145811119Y-94588547D01*
X145868571Y-94646000D01*
X145983476Y-94703452D01*
X146270738Y-94703452D01*
X146385642Y-94646000D01*
X146443095Y-94588547D01*
X146500547Y-94473642D01*
X146500547Y-94186381D01*
X146443095Y-94071476D01*
X146385642Y-94014023D01*
D12*
X147605749Y-91195647D02*
X148295178Y-91195647D01*
X147950463Y-91195647D02*
X147950463Y-89989147D01*
X148065368Y-90161504D01*
X148180273Y-90276409D01*
X148295178Y-90333861D01*
D15*
%TO.C,IC4*%
X142753503Y-89073566D02*
X142753503Y-87384466D01*
X140983970Y-88912700D02*
X141064403Y-88993133D01*
X141305703Y-89073566D01*
X141466570Y-89073566D01*
X141707870Y-88993133D01*
X141868736Y-88832266D01*
X141949170Y-88671400D01*
X142029603Y-88349666D01*
X142029603Y-88108366D01*
X141949170Y-87786633D01*
X141868736Y-87625766D01*
X141707870Y-87464900D01*
X141466570Y-87384466D01*
X141305703Y-87384466D01*
X141064403Y-87464900D01*
X140983970Y-87545333D01*
X139536170Y-87947500D02*
X139536170Y-89073566D01*
X139938336Y-87304033D02*
X140340503Y-88510533D01*
X139294870Y-88510533D01*
D16*
%TO.C,Q1*%
X103748900Y-84096600D02*
X106288900Y-84096600D01*
D17*
X115178900Y-79346800D02*
X115178900Y-89506800D01*
D18*
X115178900Y-89506800D02*
X102732900Y-89506800D01*
D16*
X103748900Y-83487000D02*
X105018900Y-83487000D01*
X105018900Y-85366600D02*
X106288900Y-85366600D01*
X105018900Y-83487000D02*
X106288900Y-83487000D01*
D18*
X102732900Y-79346800D02*
X115178900Y-79346800D01*
X105018900Y-83487000D02*
X105018900Y-82394800D01*
D16*
X106288900Y-84731600D02*
X103748900Y-84731600D01*
D18*
X102097900Y-83410800D02*
X102097900Y-79981800D01*
D16*
X103748900Y-84731600D02*
X103748900Y-84096600D01*
D18*
X102097900Y-88871800D02*
X102097900Y-85442800D01*
D16*
X103748900Y-85366600D02*
X105018900Y-85366600D01*
D18*
X105018900Y-85366600D02*
X105018900Y-86458800D01*
D16*
X106288900Y-84096600D02*
X106288900Y-84731600D01*
D18*
X102732900Y-79346800D02*
G75*
G03*
X102097900Y-79981800I-1J-634999D01*
G01*
X102097900Y-88871800D02*
G75*
G03*
X102732900Y-89506800I635000J0D01*
G01*
D19*
%TO.C,IC3*%
X141955000Y-114750000D02*
X162395000Y-114750000D01*
X141955000Y-116400000D02*
X141955000Y-114750000D01*
X162395000Y-120050000D02*
X141955000Y-120050000D01*
X141955000Y-120050000D02*
X141955000Y-118400000D01*
X162395000Y-114750000D02*
X162395000Y-120050000D01*
X141955000Y-118400000D02*
G75*
G03*
X141955000Y-116400000I0J1000000D01*
G01*
D13*
%TO.C,SW1*%
X140007400Y-83125100D02*
X148897400Y-83125100D01*
X140007400Y-76775100D02*
X140007400Y-83125100D01*
X148897400Y-76775100D02*
X140007400Y-76775100D01*
X148897400Y-83125100D02*
X148897400Y-76775100D01*
X146697400Y-79950100D02*
G75*
G03*
X146697400Y-79950100I-2245000J0D01*
G01*
X140959900Y-77410100D02*
G75*
G03*
X140959900Y-77410100I-317500J0D01*
G01*
X140959900Y-82490100D02*
G75*
G03*
X140959900Y-82490100I-317500J0D01*
G01*
X148579900Y-82490100D02*
G75*
G03*
X148579900Y-82490100I-317500J0D01*
G01*
X148579900Y-77410100D02*
G75*
G03*
X148579900Y-77410100I-317500J0D01*
G01*
D20*
%TO.C,IC4*%
X138894900Y-90876800D02*
X138394900Y-90876800D01*
X119644900Y-90626800D02*
X119394900Y-90876800D01*
X138144900Y-104126800D02*
X138144900Y-103626800D01*
X137894900Y-90126800D02*
X137894900Y-90626800D01*
X119644900Y-90126800D02*
X119644900Y-90626800D01*
X138394900Y-90876800D02*
X138144900Y-90626800D01*
X119644900Y-103626800D02*
X119644900Y-104126800D01*
D13*
X138469900Y-90126800D02*
X137894900Y-90126800D01*
X119644900Y-104126800D02*
X138144900Y-104126800D01*
D20*
X138144900Y-103626800D02*
X138394900Y-103376800D01*
D13*
X118894900Y-90876800D02*
X118894900Y-103376800D01*
D20*
X137894900Y-90626800D02*
X119644900Y-90626800D01*
X119394900Y-90876800D02*
X119394900Y-103376800D01*
D13*
X138894900Y-103701800D02*
X138894900Y-103376800D01*
X118894900Y-90551800D02*
X118894900Y-90876800D01*
D20*
X119394900Y-103376800D02*
X119644900Y-103626800D01*
X118894900Y-90876800D02*
X119394900Y-90876800D01*
X138894900Y-103376800D02*
X138394900Y-103376800D01*
D13*
X118894900Y-103701800D02*
X119319900Y-104126800D01*
X138144900Y-104126800D02*
X138469900Y-104126800D01*
D20*
X118894900Y-103376800D02*
X119394900Y-103376800D01*
D13*
X119319900Y-90126800D02*
X118894900Y-90551800D01*
X138894900Y-90551800D02*
X138469900Y-90126800D01*
X118894900Y-103376800D02*
X118894900Y-103701800D01*
X119644900Y-90126800D02*
X119319900Y-90126800D01*
X138894900Y-90876800D02*
X138894900Y-90551800D01*
X119319900Y-104126800D02*
X119644900Y-104126800D01*
X138469900Y-104126800D02*
X138894900Y-103701800D01*
X137894900Y-90126800D02*
X119644900Y-90126800D01*
X138894900Y-103376800D02*
X138894900Y-90876800D01*
D20*
X138144900Y-90626800D02*
X137894900Y-90626800D01*
X138394900Y-103376800D02*
X138394900Y-90876800D01*
X119644900Y-103626800D02*
X138144900Y-103626800D01*
D13*
X137534900Y-101226800D02*
G75*
G03*
X137534900Y-101226800I-1500000J0D01*
G01*
%TD*%
M02*
