%TF.GenerationSoftware,KiCad,Pcbnew,(6.0.5)*%
%TF.CreationDate,2022-11-15T14:41:10-03:00*%
%TF.ProjectId,obsonet_1,6f62736f-6e65-4745-9f31-2e6b69636164,rev?*%
%TF.SameCoordinates,Original*%
%TF.FileFunction,Soldermask,Bot*%
%TF.FilePolarity,Negative*%
%FSLAX46Y46*%
G04 Gerber Fmt 4.6, Leading zero omitted, Abs format (unit mm)*
G04 Created by KiCad (PCBNEW (6.0.5)) date 2022-11-15 14:41:10*
%MOMM*%
%LPD*%
G01*
G04 APERTURE LIST*
G04 Aperture macros list*
%AMRoundRect*
0 Rectangle with rounded corners*
0 $1 Rounding radius*
0 $2 $3 $4 $5 $6 $7 $8 $9 X,Y pos of 4 corners*
0 Add a 4 corners polygon primitive as box body*
4,1,4,$2,$3,$4,$5,$6,$7,$8,$9,$2,$3,0*
0 Add four circle primitives for the rounded corners*
1,1,$1+$1,$2,$3*
1,1,$1+$1,$4,$5*
1,1,$1+$1,$6,$7*
1,1,$1+$1,$8,$9*
0 Add four rect primitives between the rounded corners*
20,1,$1+$1,$2,$3,$4,$5,0*
20,1,$1+$1,$4,$5,$6,$7,0*
20,1,$1+$1,$6,$7,$8,$9,0*
20,1,$1+$1,$8,$9,$2,$3,0*%
G04 Aperture macros list end*
%ADD10C,2.104800*%
%ADD11C,2.100000*%
%ADD12C,3.300000*%
%ADD13C,1.712800*%
%ADD14O,1.512800X2.720800*%
%ADD15RoundRect,0.152400X1.125000X1.125000X-1.125000X1.125000X-1.125000X-1.125000X1.125000X-1.125000X0*%
%ADD16RoundRect,0.152400X-0.749300X-4.064000X0.749300X-4.064000X0.749300X4.064000X-0.749300X4.064000X0*%
%ADD17RoundRect,0.152400X-0.750000X-1.000000X0.750000X-1.000000X0.750000X1.000000X-0.750000X1.000000X0*%
%ADD18RoundRect,0.152400X0.800000X0.901500X-0.800000X0.901500X-0.800000X-0.901500X0.800000X-0.901500X0*%
%ADD19RoundRect,0.152400X-0.800000X-0.901500X0.800000X-0.901500X0.800000X0.901500X-0.800000X0.901500X0*%
%ADD20RoundRect,0.152400X0.901500X-0.800000X0.901500X0.800000X-0.901500X0.800000X-0.901500X-0.800000X0*%
%ADD21RoundRect,0.152400X-0.300000X-1.100000X0.300000X-1.100000X0.300000X1.100000X-0.300000X1.100000X0*%
%ADD22RoundRect,0.152400X-1.270000X0.635000X-1.270000X-0.635000X1.270000X-0.635000X1.270000X0.635000X0*%
%ADD23RoundRect,0.152400X-1.397000X0.635000X-1.397000X-0.635000X1.397000X-0.635000X1.397000X0.635000X0*%
%ADD24R,1.600000X1.600000*%
%ADD25O,1.600000X1.600000*%
%ADD26RoundRect,0.152400X-1.270000X-0.635000X1.270000X-0.635000X1.270000X0.635000X-1.270000X0.635000X0*%
%ADD27RoundRect,0.152400X-0.600000X-1.100000X0.600000X-1.100000X0.600000X1.100000X-0.600000X1.100000X0*%
%ADD28RoundRect,0.152400X0.175000X1.100000X-0.175000X1.100000X-0.175000X-1.100000X0.175000X-1.100000X0*%
%ADD29RoundRect,0.152400X1.100000X0.175000X-1.100000X0.175000X-1.100000X-0.175000X1.100000X-0.175000X0*%
%ADD30C,0.800000*%
G04 APERTURE END LIST*
D10*
%TO.C,C6*%
X111800000Y-120300000D03*
X114340000Y-120300000D03*
%TD*%
D11*
%TO.C,CON2*%
X195588000Y-74626000D03*
D12*
X192540000Y-88215000D03*
D11*
X195588000Y-90374000D03*
D12*
X192540000Y-76785000D03*
D13*
X186190000Y-86945000D03*
X183650000Y-85675000D03*
X186190000Y-84405000D03*
X183650000Y-83135000D03*
X186190000Y-81865000D03*
X183650000Y-80595000D03*
X186190000Y-79325000D03*
X183650000Y-78055000D03*
%TD*%
D14*
%TO.C,TF1*%
X178107300Y-80839100D03*
X175567300Y-80839100D03*
X173027300Y-80839100D03*
X165407300Y-80839100D03*
X162867300Y-80839100D03*
X160327300Y-80839100D03*
X160327300Y-88459100D03*
X162867300Y-88459100D03*
X165407300Y-88459100D03*
X173027300Y-88459100D03*
X175567300Y-88459100D03*
X178107300Y-88459100D03*
%TD*%
D13*
%TO.C,C7*%
X170487300Y-77187800D03*
X175567300Y-77187800D03*
%TD*%
%TO.C,C8*%
X167947400Y-77170000D03*
X162867400Y-77170000D03*
%TD*%
%TO.C,C9*%
X162867400Y-92078600D03*
X167947400Y-92078600D03*
%TD*%
%TO.C,C10*%
X175567300Y-92078600D03*
X170487300Y-92078600D03*
%TD*%
D15*
%TO.C,IC6*%
X173900000Y-121100000D03*
X173900000Y-118560000D03*
X173900000Y-116020000D03*
X173900000Y-113480000D03*
X173900000Y-110940000D03*
X173900000Y-108400000D03*
X173900000Y-105860000D03*
X173900000Y-103320000D03*
X173900000Y-100780000D03*
X173900000Y-98240000D03*
X166280000Y-98240000D03*
X166280000Y-100780000D03*
X166280000Y-103320000D03*
X166280000Y-105860000D03*
X166280000Y-108400000D03*
X166280000Y-110940000D03*
X166280000Y-113480000D03*
X166280000Y-116020000D03*
X166280000Y-118560000D03*
X166280000Y-121100000D03*
%TD*%
D16*
%TO.C,CON1*%
X183981100Y-131872400D03*
X181441100Y-131872400D03*
X178901100Y-131872400D03*
X176361100Y-131872400D03*
X173821100Y-131872400D03*
X171281100Y-131872400D03*
X168741100Y-131872400D03*
X166201100Y-131872400D03*
X163661100Y-131872400D03*
X161121100Y-131872400D03*
X158581100Y-131872400D03*
X156041100Y-131872400D03*
X153501100Y-131872400D03*
X150961100Y-131872400D03*
X148421100Y-131872400D03*
X145881100Y-131872400D03*
X143341100Y-131872400D03*
X140801100Y-131872400D03*
X138261100Y-131872400D03*
X135721100Y-131872400D03*
X133181100Y-131872400D03*
X130641100Y-131872400D03*
X128101100Y-131872400D03*
X125561100Y-131872400D03*
X123021100Y-131872400D03*
%TD*%
D13*
%TO.C,LED1*%
X105717500Y-77029200D03*
X108257500Y-77029200D03*
%TD*%
%TO.C,LED2*%
X114131100Y-77029100D03*
X111591100Y-77029100D03*
%TD*%
D17*
%TO.C,C1*%
X113950000Y-110030000D03*
X116950000Y-110030000D03*
%TD*%
%TO.C,C4*%
X158500000Y-106830000D03*
X161500000Y-106830000D03*
%TD*%
D18*
%TO.C,R2*%
X114124400Y-74647900D03*
X111280400Y-74647900D03*
%TD*%
D19*
%TO.C,R3*%
X105724000Y-74647900D03*
X108568000Y-74647900D03*
%TD*%
D20*
%TO.C,R4*%
X134927300Y-81721300D03*
X134927300Y-78877300D03*
%TD*%
%TO.C,R5*%
X131434800Y-81721300D03*
X131434800Y-78877300D03*
%TD*%
%TO.C,R6*%
X146039900Y-109820100D03*
X146039900Y-106976100D03*
%TD*%
%TO.C,R7*%
X156358700Y-83023100D03*
X156358700Y-80179100D03*
%TD*%
D21*
%TO.C,IC2*%
X158104900Y-95479300D03*
X159374900Y-95479300D03*
X160644900Y-95479300D03*
X161914900Y-95479300D03*
X161914900Y-100679300D03*
X160644900Y-100679300D03*
X159374900Y-100679300D03*
X158104900Y-100679300D03*
%TD*%
D22*
%TO.C,Q1*%
X116829900Y-82013800D03*
X116829900Y-86839800D03*
D23*
X100827900Y-84426800D03*
%TD*%
D24*
%TO.C,IC3*%
X143285000Y-113590000D03*
D25*
X145825000Y-113590000D03*
X148365000Y-113590000D03*
X150905000Y-113590000D03*
X153445000Y-113590000D03*
X155985000Y-113590000D03*
X158525000Y-113590000D03*
X161065000Y-113590000D03*
X161065000Y-121210000D03*
X158525000Y-121210000D03*
X155985000Y-121210000D03*
X153445000Y-121210000D03*
X150905000Y-121210000D03*
X148365000Y-121210000D03*
X145825000Y-121210000D03*
X143285000Y-121210000D03*
%TD*%
D26*
%TO.C,SW1*%
X139372400Y-82490100D03*
X149532400Y-82490100D03*
X139372400Y-77410100D03*
X149532400Y-77410100D03*
%TD*%
D27*
%TO.C,IC5*%
X147309900Y-89993100D03*
X149849900Y-89993100D03*
X152389900Y-89993100D03*
X154929900Y-89993100D03*
X154929900Y-97593100D03*
X152389900Y-97593100D03*
X149849900Y-97593100D03*
X147309900Y-97593100D03*
%TD*%
D28*
%TO.C,IC4*%
X138319900Y-106091800D03*
X137669900Y-106091800D03*
X137019900Y-106091800D03*
X136369900Y-106091800D03*
X135719900Y-106091800D03*
X135069900Y-106091800D03*
X134419900Y-106091800D03*
X133769900Y-106091800D03*
X133119900Y-106091800D03*
X132469900Y-106091800D03*
X131819900Y-106091800D03*
X131169900Y-106091800D03*
X130519900Y-106091800D03*
X129869900Y-106091800D03*
X129219900Y-106091800D03*
X128569900Y-106091800D03*
X127919900Y-106091800D03*
X127269900Y-106091800D03*
X126619900Y-106091800D03*
X125969900Y-106091800D03*
X125319900Y-106091800D03*
X124669900Y-106091800D03*
X124019900Y-106091800D03*
X123369900Y-106091800D03*
X122719900Y-106091800D03*
X122069900Y-106091800D03*
X121419900Y-106091800D03*
X120769900Y-106091800D03*
X120119900Y-106091800D03*
X119469900Y-106091800D03*
D29*
X116929900Y-103301800D03*
X116929900Y-102651800D03*
X116929900Y-102001800D03*
X116929900Y-101351800D03*
X116929900Y-100701800D03*
X116929900Y-100051800D03*
X116929900Y-99401800D03*
X116929900Y-98751800D03*
X116929900Y-98101800D03*
X116929900Y-97451800D03*
X116929900Y-96801800D03*
X116929900Y-96151800D03*
X116929900Y-95501800D03*
X116929900Y-94851800D03*
X116929900Y-94201800D03*
X116929900Y-93551800D03*
X116929900Y-92901800D03*
X116929900Y-92251800D03*
X116929900Y-91601800D03*
X116929900Y-90951800D03*
D28*
X119469900Y-88161800D03*
X120119900Y-88161800D03*
X120769900Y-88161800D03*
X121419900Y-88161800D03*
X122069900Y-88161800D03*
X122719900Y-88161800D03*
X123369900Y-88161800D03*
X124019900Y-88161800D03*
X124669900Y-88161800D03*
X125319900Y-88161800D03*
X125969900Y-88161800D03*
X126619900Y-88161800D03*
X127269900Y-88161800D03*
X127919900Y-88161800D03*
X128569900Y-88161800D03*
X129219900Y-88161800D03*
X129869900Y-88161800D03*
X130519900Y-88161800D03*
X131169900Y-88161800D03*
X131819900Y-88161800D03*
X132469900Y-88161800D03*
X133119900Y-88161800D03*
X133769900Y-88161800D03*
X134419900Y-88161800D03*
X135069900Y-88161800D03*
X135719900Y-88161800D03*
X136369900Y-88161800D03*
X137019900Y-88161800D03*
X137669900Y-88161800D03*
X138319900Y-88161800D03*
D29*
X140859900Y-90951800D03*
X140859900Y-91601800D03*
X140859900Y-92251800D03*
X140859900Y-92901800D03*
X140859900Y-93551800D03*
X140859900Y-94201800D03*
X140859900Y-94851800D03*
X140859900Y-95501800D03*
X140859900Y-96151800D03*
X140859900Y-96801800D03*
X140859900Y-97451800D03*
X140859900Y-98101800D03*
X140859900Y-98751800D03*
X140859900Y-99401800D03*
X140859900Y-100051800D03*
X140859900Y-100701800D03*
X140859900Y-101351800D03*
X140859900Y-102001800D03*
X140859900Y-102651800D03*
X140859900Y-103301800D03*
%TD*%
D30*
X127600000Y-101760000D03*
X142880000Y-94760000D03*
X130040000Y-102710000D03*
X127570000Y-93650000D03*
X120400000Y-108020000D03*
X130280000Y-98360000D03*
X131790000Y-126050000D03*
X153630000Y-105040000D03*
X128840000Y-96380000D03*
X160310000Y-98110000D03*
X120750000Y-82760000D03*
X157470000Y-97500000D03*
X150330000Y-107830000D03*
X108890000Y-95850000D03*
X143630000Y-107880000D03*
X116475200Y-104332300D03*
X133016800Y-102589400D03*
X131807000Y-101422000D03*
X125062500Y-85969100D03*
X122775000Y-85896100D03*
X154363400Y-126839000D03*
X150865349Y-103874651D03*
X154028500Y-107820000D03*
X146027701Y-101652299D03*
X143447299Y-97022701D03*
X120415900Y-102900000D03*
X163110600Y-78527300D03*
X126530000Y-99250000D03*
X123539400Y-95190100D03*
X122571700Y-93858300D03*
X172794400Y-123409700D03*
X158845400Y-116484200D03*
X154540000Y-100920000D03*
X135719500Y-102677800D03*
X134562500Y-101500400D03*
X131230000Y-86620000D03*
X124720000Y-97000000D03*
X119088400Y-96312000D03*
X125153850Y-109799989D03*
X136893600Y-126718600D03*
X115041300Y-98002100D03*
X129700000Y-123270000D03*
X118753400Y-97315400D03*
X134830000Y-119770000D03*
X122784400Y-92657700D03*
X120546900Y-96900400D03*
X122512500Y-95890300D03*
X130807700Y-102069800D03*
X129265092Y-109614419D03*
X147588900Y-126344300D03*
X134914017Y-114865983D03*
X144792700Y-124721100D03*
X132520600Y-95074400D03*
X133541300Y-96837600D03*
X136460000Y-108700000D03*
M02*
