M48
; DRILL file {KiCad (6.0.5)} date Tue Nov 15 14:41:12 2022
; FORMAT={-:-/ absolute / inch / decimal}
; #@! TF.CreationDate,2022-11-15T14:41:12-03:00
; #@! TF.GenerationSoftware,Kicad,Pcbnew,(6.0.5)
; #@! TF.FileFunction,Plated,1,2,PTH
FMAT,2
INCH
; #@! TA.AperFunction,Plated,PTH,ViaDrill
T1C0.0157
; #@! TA.AperFunction,Plated,PTH,ComponentDrill
T2C0.0276
; #@! TA.AperFunction,Plated,PTH,ComponentDrill
T3C0.0315
; #@! TA.AperFunction,Plated,PTH,ComponentDrill
T4C0.0354
; #@! TA.AperFunction,Plated,PTH,ComponentDrill
T5C0.0591
%
G90
G05
T1
X4.287Y-3.7736
X4.5292Y-3.8584
X4.5856Y-4.1076
X4.6753Y-3.8313
X4.6885Y-3.7918
X4.7402Y-4.2528
X4.7408Y-4.0512
X4.7459Y-3.815
X4.7539Y-3.2583
X4.8233Y-3.7752
X4.8257Y-3.6952
X4.8337Y-3.3817
X4.834Y-3.6479
X4.8638Y-3.7476
X4.9102Y-3.8189
X4.9237Y-3.3846
X4.9273Y-4.3228
X4.9815Y-3.9075
X5.0224Y-3.687
X5.0236Y-4.0063
X5.0724Y-3.7945
X5.0892Y-4.3155
X5.1063Y-4.8531
X5.1197Y-4.0437
X5.1291Y-3.8724
X5.1499Y-4.0185
X5.1665Y-3.4102
X5.1886Y-4.9626
X5.1893Y-3.993
X5.2173Y-3.7431
X5.2369Y-4.039
X5.2575Y-3.8125
X5.2977Y-3.9961
X5.3083Y-4.7154
X5.3116Y-4.5223
X5.3433Y-4.0424
X5.3724Y-4.2795
X5.3895Y-4.9889
X5.6252Y-3.7307
X5.6475Y-3.8198
X5.6547Y-4.2472
X5.7005Y-4.9103
X5.7491Y-4.0021
X5.8106Y-4.9742
X5.9185Y-4.2453
X5.9396Y-4.0896
X6.0484Y-4.1354
X6.0641Y-4.2449
X6.0773Y-4.9937
X6.0843Y-3.9732
X6.1996Y-3.8386
X6.2538Y-4.586
X6.3114Y-3.8626
X6.4217Y-3.0916
X6.8029Y-4.8586
T2
X6.3121Y-3.1826
X6.3121Y-3.4826
X6.4121Y-3.1826
X6.4121Y-3.4826
X6.5121Y-3.1826
X6.5121Y-3.4826
X6.8121Y-3.1826
X6.8121Y-3.4826
X6.9121Y-3.1826
X6.9121Y-3.4826
X7.0121Y-3.1826
X7.0121Y-3.4826
T3
X5.6411Y-4.472
X5.6411Y-4.772
X5.7411Y-4.472
X5.7411Y-4.772
X5.8411Y-4.472
X5.8411Y-4.772
X5.9411Y-4.472
X5.9411Y-4.772
X6.0411Y-4.472
X6.0411Y-4.772
X6.1411Y-4.472
X6.1411Y-4.772
X6.2411Y-4.472
X6.2411Y-4.772
X6.3411Y-4.472
X6.3411Y-4.772
T4
X4.1621Y-3.0326
X4.2621Y-3.0326
X4.3934Y-3.0326
X4.4016Y-4.7362
X4.4934Y-3.0326
X4.5016Y-4.7362
X6.4121Y-3.0382
X6.4121Y-3.6251
X6.6121Y-3.0382
X6.6121Y-3.6251
X6.7121Y-3.0389
X6.7121Y-3.6251
X6.9121Y-3.0389
X6.9121Y-3.6251
X7.2303Y-3.073
X7.2303Y-3.173
X7.2303Y-3.273
X7.2303Y-3.373
X7.3303Y-3.123
X7.3303Y-3.223
X7.3303Y-3.323
X7.3303Y-3.423
T5
X6.5465Y-3.8677
X6.5465Y-3.9677
X6.5465Y-4.0677
X6.5465Y-4.1677
X6.5465Y-4.2677
X6.5465Y-4.3677
X6.5465Y-4.4677
X6.5465Y-4.5677
X6.5465Y-4.6677
X6.5465Y-4.7677
X6.8465Y-3.8677
X6.8465Y-3.9677
X6.8465Y-4.0677
X6.8465Y-4.1677
X6.8465Y-4.2677
X6.8465Y-4.3677
X6.8465Y-4.4677
X6.8465Y-4.5677
X6.8465Y-4.6677
X6.8465Y-4.7677
T0
M30
